<?xml version="1.0" encoding="utf-8"?>
<!-- Generator: Adobe Illustrator 19.2.1, SVG Export Plug-In . SVG Version: 6.00 Build 0)  -->
<svg version="1.1" id="Ebene_1" xmlns="http://www.w3.org/2000/svg" xmlns:xlink="http://www.w3.org/1999/xlink" x="0px" y="0px"
	 viewBox="0 0 220 25" enable-background="new 0 0 220 25" xml:space="preserve">
<g>
	<path fill="#CC003D" d="M3.5,21.5h4.9c5.7,0,10-2.5,10-8.9c0-6.6-3.8-9.2-9.5-9.2H3.5V21.5z M8.9,0.5c8.1,0,13,4.5,13,12.1
		c0,7.8-5.8,11.8-13.8,11.8H0v-24H8.9z"/>
	<path fill="#CC003D" d="M26.8,21.6h5.9c2.8,0,5.3-1,5.3-4.1c0-2.9-2.1-4.4-5-4.4h-6.2V21.6z M26.8,10.4h5.5c2.7,0,4.2-1.4,4.2-3.5
		c0-2.5-1.7-3.7-4.4-3.7h-5.3V10.4z M31.7,0.5c4.4,0,8.2,1.8,8.2,6.4c0,1.9-0.7,3.4-2.4,4.4v0.1c2.7,1.4,4.1,3.5,4.1,6.2
		c0,4.4-4,6.8-8.5,6.8h-9.7v-24H31.7z"/>
	<path fill="#CC003D" d="M62.3,5.4c-2.4-1.7-4.5-2.5-7.1-2.5c-5.7,0-9.4,4.1-9.4,9.5c0,6.2,4.2,9.4,9.4,9.4c3,0,4.9-0.6,7.5-2.3l1,3
		c-2.6,1.8-5.3,2.4-8.9,2.4c-6.4,0-12.5-3.9-12.5-12.5C42.2,5,48.2,0,55.2,0c3.6,0,6,0.8,8.5,2.7L62.3,5.4z"/>
	<path fill="#CC003D" d="M73.1,23.9l1.7-0.1c1.1-0.1,1.4-0.3,1.4-0.6V2.6c0-0.3-0.1-0.3-1.7-0.5L73.1,2L73,1.4h17.2l0.5,6.7h-0.6
		l-0.3-1.4c-1-3-1.8-4.6-7.2-4.6h-3.5v10.4l2.4,0c3.4-0.1,3.9-0.4,4.5-2.3l0.4-1h0.5l-0.7,7.4l-0.5,0l-0.1-1c-0.1-2-0.7-2.2-4.3-2.4
		l-2.2,0v10.2c0,0.3,0.2,0.4,1.7,0.6l2.1,0.1l0.1,0.6H73L73.1,23.9z"/>
	<path fill="#CC003D" d="M92.8,23.9l1.8-0.1c1.1-0.1,1.4-0.3,1.4-0.6V2.6c0-0.3-0.2-0.3-1.7-0.5L92.9,2l-0.1-0.6h9.6L102.2,2
		l-1.8,0.1C99.4,2.2,99,2.4,99,2.7v20.6c0,0.3,0.2,0.3,1.7,0.5l1.5,0.1l0.1,0.6h-9.6L92.8,23.9z"/>
	<path fill="#CC003D" d="M108.8,3.9L108.8,3.9l0,17.9c0,1.4,0.6,1.8,2.4,2l1.3,0.1l0.1,0.6h-8l0.1-0.6l1.3-0.1
		c1.3-0.1,2.1-0.5,2.1-2.1l0-17.8c-0.4-0.7-1.1-1.5-2.7-1.8l-1-0.1l-0.1-0.6h6.2L124.6,20h0.1l0-16c0-1.4-0.6-1.7-2.4-2L121,2
		l-0.1-0.6h8L128.7,2l-1.3,0.1c-1.4,0.1-2.1,0.5-2.1,2l0,20.5h-0.7L108.8,3.9z"/>
	<path fill="#CC003D" d="M138.8,4.4h-0.1c0,0-3.4,9.8-3.5,9.8h6.8L138.8,4.4z M133.3,19.8c-1.1,3.3-1.1,3.8,1.4,4l1.2,0.1l0.1,0.6
		h-7.9l0.1-0.6l0.9-0.1c1.9-0.3,2.2-0.7,4.3-6.4l4.9-13.7L138,2.6c0.7-0.2,1.8-1.1,2.1-1.7h0.4l6.8,20.2c0.7,2.1,1,2.6,2.4,2.7
		l1.4,0.1l0.1,0.6h-9.5l0.1-0.6l1.5-0.1c1.3-0.1,1.7-0.7,1.1-2.4l-2.1-6.5H135L133.3,19.8z"/>
	<path fill="#CC003D" d="M156.9,3.9L156.9,3.9l0,17.9c0,1.4,0.6,1.8,2.4,2l1.3,0.1l0.1,0.6h-8l0.1-0.6l1.3-0.1
		c1.3-0.1,2.1-0.5,2.1-2.1l0-17.8c-0.4-0.7-1.1-1.5-2.7-1.8l-1-0.1l-0.1-0.6h6.2L172.7,20h0.1l0-16c0-1.4-0.6-1.7-2.4-2L169,2
		l-0.1-0.6h8L176.8,2l-1.3,0.1c-1.4,0.1-2.1,0.5-2.1,2l0,20.5h-0.7L156.9,3.9z"/>
	<path fill="#CC003D" d="M177.5,13.1c0-7.2,5.3-12.3,12.9-12.3c2.4,0,4.6,0.7,6,1.3l2.2-0.8l0.2,7h-0.6L195.7,3
		c-1-0.8-2.9-1.4-5.5-1.4c-6,0-9.6,4.9-9.6,11.2c0,6.9,3.9,11.5,9.7,11.5c3.6,0,5.6-1.5,7.3-4.1l1.1-2.6h0.6l-1.2,6l-1.3,0
		c-1.4,0.6-4.2,1.4-6.7,1.4C182.8,25,177.5,20.3,177.5,13.1"/>
	<path fill="#CC003D" d="M201.2,23.9l1.6-0.1c1.1-0.1,1.5-0.3,1.5-0.6V2.6c0-0.3-0.2-0.3-1.7-0.5L201.2,2l-0.1-0.6h17.2l0.5,6.6
		h-0.6l-0.4-1.5c-1.1-3.1-2-4.4-6.9-4.4h-3.7v10.1l2.5,0c3.3-0.1,4-0.4,4.5-2.3l0.4-1.1l0.5,0l-0.7,7.4l-0.5,0l-0.1-1
		c-0.1-2-0.7-2.2-4.3-2.4l-2.4,0v10.9l4,0.1c5.5,0,6.6-2,7.7-4.7l0.4-1.4l0.6,0l-1.3,6.8h-17.7L201.2,23.9z"/>
</g>
</svg>
